<?xml version="1.0" standalone="no"?>
<!DOCTYPE svg PUBLIC "-//W3C//DTD SVG 20010904//EN"
 "http://www.w3.org/TR/2001/REC-SVG-20010904/DTD/svg10.dtd">
<svg version="1.0" xmlns="http://www.w3.org/2000/svg"
 width="720.000000pt" height="720.000000pt" viewBox="0 0 720.000000 720.000000"
 preserveAspectRatio="xMidYMid meet">
<metadata>
Created by potrace 1.11, written by Peter Selinger 2001-2013
</metadata>
<g transform="translate(0.000000,720.000000) scale(0.100000,-0.100000)"
fill="#000000" stroke="none">
<path d="M1354 6211 c-2 -2 -4 -93 -4 -202 l0 -199 -202 -2 -203 -3 1 -197 c0
-109 -3 -199 -6 -199 -3 -1 -90 -3 -195 -4 -104 -1 -193 -3 -197 -4 -4 0 -7
-358 -7 -795 0 -736 2 -794 17 -798 9 -1 99 -3 200 -3 156 1 183 -1 186 -15 2
-8 3 -99 2 -202 l-1 -187 185 0 c102 0 193 0 203 0 16 -1 17 -17 17 -201 0
-153 3 -200 13 -201 6 -1 98 -2 202 -3 l190 -1 0 -200 0 -200 60 -2 c33 -1
124 -2 203 -2 l142 -1 0 -200 c0 -184 1 -200 18 -201 9 0 100 -1 202 -2 l185
-2 0 -200 0 -200 202 0 203 0 0 -202 c0 -186 1 -203 18 -204 9 0 100 0 202 -1
l185 0 -1 -199 c0 -110 2 -200 5 -201 3 0 95 -2 204 -3 l198 -1 -1 120 c-1 67
-1 158 -1 202 l1 82 173 0 c94 0 186 1 202 1 l30 1 -1 196 c0 164 2 197 14
202 8 3 100 5 203 5 l189 0 0 203 0 203 200 -2 200 -2 1 60 c0 33 0 124 0 203
l0 142 120 1 c65 0 157 1 203 1 l83 1 1 171 c0 94 0 185 1 202 l1 31 196 -1
c118 -1 198 3 202 9 3 5 5 96 5 202 l-1 193 41 1 c23 0 114 0 203 1 l161 0 1
192 c0 105 1 196 1 202 1 7 64 10 201 10 l200 -1 0 800 0 801 -200 -1 c-173
-1 -200 1 -201 15 0 8 -1 99 -1 203 l-1 187 -202 0 -202 0 1 200 c1 125 -3
201 -9 203 -9 3 -1573 1 -1585 -2 -3 0 -5 -90 -5 -198 l0 -198 -202 -3 -203
-2 1 -158 c0 -86 0 -177 0 -202 l-1 -45 -197 0 c-109 0 -200 3 -203 6 -3 4 -5
95 -4 203 l1 196 -204 0 -203 0 0 203 0 202 -816 0 c-449 0 -818 -2 -820 -4z"/>
</g>
</svg>
